<mxfile host="app.diagrams.net" modified="2023-07-19T12:57:29.595Z" agent="Mozilla/5.0 (Windows NT 10.0; Win64; x64) AppleWebKit/537.36 (KHTML, like Gecko) Chrome/114.0.0.0 Safari/537.36" etag="v7KBfanBo9lQe2rtpStK" version="21.6.2" type="device">
  <diagram name="Pagina-1" id="zqnnbeS3VIEL0A12_Vb1">
    <mxGraphModel dx="1877" dy="577" grid="1" gridSize="10" guides="1" tooltips="1" connect="1" arrows="1" fold="1" page="1" pageScale="1" pageWidth="827" pageHeight="1169" math="0" shadow="0">
      <root>
        <mxCell id="0" />
        <mxCell id="1" parent="0" />
        <mxCell id="BwX1vq0lGWTnCHXV-Kp8-11" style="edgeStyle=orthogonalEdgeStyle;rounded=0;orthogonalLoop=1;jettySize=auto;html=1;exitX=0.25;exitY=0;exitDx=0;exitDy=0;endArrow=oval;endFill=0;endSize=10;" parent="1" source="BwX1vq0lGWTnCHXV-Kp8-9" edge="1">
          <mxGeometry relative="1" as="geometry">
            <mxPoint x="155" y="100" as="targetPoint" />
          </mxGeometry>
        </mxCell>
        <mxCell id="BwX1vq0lGWTnCHXV-Kp8-23" style="edgeStyle=orthogonalEdgeStyle;rounded=0;orthogonalLoop=1;jettySize=auto;html=1;exitX=0;exitY=0.25;exitDx=0;exitDy=0;endArrow=oval;endFill=1;endSize=10;" parent="1" source="BwX1vq0lGWTnCHXV-Kp8-9" edge="1">
          <mxGeometry relative="1" as="geometry">
            <mxPoint x="50" y="170" as="targetPoint" />
          </mxGeometry>
        </mxCell>
        <mxCell id="BwX1vq0lGWTnCHXV-Kp8-31" style="edgeStyle=orthogonalEdgeStyle;rounded=0;orthogonalLoop=1;jettySize=auto;html=1;exitX=0.25;exitY=1;exitDx=0;exitDy=0;endArrow=oval;endFill=0;endSize=10;" parent="1" source="BwX1vq0lGWTnCHXV-Kp8-9" edge="1">
          <mxGeometry relative="1" as="geometry">
            <mxPoint x="155" y="270" as="targetPoint" />
          </mxGeometry>
        </mxCell>
        <mxCell id="BwX1vq0lGWTnCHXV-Kp8-9" value="User" style="whiteSpace=wrap;html=1;align=center;" parent="1" vertex="1">
          <mxGeometry x="130" y="160" width="100" height="40" as="geometry" />
        </mxCell>
        <mxCell id="BwX1vq0lGWTnCHXV-Kp8-12" value="Name" style="text;html=1;align=center;verticalAlign=middle;resizable=0;points=[];autosize=1;strokeColor=none;fillColor=none;" parent="1" vertex="1">
          <mxGeometry x="120" y="70" width="60" height="30" as="geometry" />
        </mxCell>
        <mxCell id="BwX1vq0lGWTnCHXV-Kp8-19" style="edgeStyle=orthogonalEdgeStyle;rounded=0;orthogonalLoop=1;jettySize=auto;html=1;exitX=0.25;exitY=0;exitDx=0;exitDy=0;endArrow=oval;endFill=0;endSize=10;" parent="1" edge="1">
          <mxGeometry relative="1" as="geometry">
            <mxPoint x="204" y="160" as="sourcePoint" />
            <mxPoint x="204" y="100" as="targetPoint" />
          </mxGeometry>
        </mxCell>
        <mxCell id="BwX1vq0lGWTnCHXV-Kp8-20" value="Surname" style="text;html=1;align=center;verticalAlign=middle;resizable=0;points=[];autosize=1;strokeColor=none;fillColor=none;" parent="1" vertex="1">
          <mxGeometry x="167" y="70" width="70" height="30" as="geometry" />
        </mxCell>
        <mxCell id="BwX1vq0lGWTnCHXV-Kp8-24" style="edgeStyle=orthogonalEdgeStyle;rounded=0;orthogonalLoop=1;jettySize=auto;html=1;exitX=0;exitY=0.25;exitDx=0;exitDy=0;endArrow=oval;endFill=0;endSize=10;" parent="1" edge="1">
          <mxGeometry relative="1" as="geometry">
            <mxPoint x="131" y="196" as="sourcePoint" />
            <mxPoint x="51" y="196" as="targetPoint" />
          </mxGeometry>
        </mxCell>
        <mxCell id="BwX1vq0lGWTnCHXV-Kp8-25" value="Mail" style="text;html=1;align=center;verticalAlign=middle;resizable=0;points=[];autosize=1;strokeColor=none;fillColor=none;" parent="1" vertex="1">
          <mxGeometry x="-6" y="156" width="50" height="30" as="geometry" />
        </mxCell>
        <mxCell id="BwX1vq0lGWTnCHXV-Kp8-26" value="Password" style="text;html=1;align=center;verticalAlign=middle;resizable=0;points=[];autosize=1;strokeColor=none;fillColor=none;" parent="1" vertex="1">
          <mxGeometry x="-30" y="182" width="80" height="30" as="geometry" />
        </mxCell>
        <mxCell id="BwX1vq0lGWTnCHXV-Kp8-32" value="Address" style="text;html=1;align=center;verticalAlign=middle;resizable=0;points=[];autosize=1;strokeColor=none;fillColor=none;" parent="1" vertex="1">
          <mxGeometry x="118" y="270" width="70" height="30" as="geometry" />
        </mxCell>
        <mxCell id="BwX1vq0lGWTnCHXV-Kp8-40" style="edgeStyle=orthogonalEdgeStyle;rounded=0;orthogonalLoop=1;jettySize=auto;html=1;exitX=1;exitY=0.25;exitDx=0;exitDy=0;endSize=10;endArrow=oval;endFill=0;" parent="1" source="BwX1vq0lGWTnCHXV-Kp8-33" edge="1">
          <mxGeometry relative="1" as="geometry">
            <mxPoint x="798" y="169" as="targetPoint" />
          </mxGeometry>
        </mxCell>
        <mxCell id="BwX1vq0lGWTnCHXV-Kp8-33" value="Product" style="whiteSpace=wrap;html=1;align=center;" parent="1" vertex="1">
          <mxGeometry x="608" y="159" width="100" height="40" as="geometry" />
        </mxCell>
        <mxCell id="BwX1vq0lGWTnCHXV-Kp8-35" style="edgeStyle=orthogonalEdgeStyle;rounded=0;orthogonalLoop=1;jettySize=auto;html=1;exitX=0.25;exitY=0;exitDx=0;exitDy=0;endArrow=oval;endFill=1;endSize=10;" parent="1" edge="1">
          <mxGeometry relative="1" as="geometry">
            <mxPoint x="626" y="159" as="sourcePoint" />
            <mxPoint x="626" y="99" as="targetPoint" />
          </mxGeometry>
        </mxCell>
        <mxCell id="BwX1vq0lGWTnCHXV-Kp8-36" value="Code" style="text;html=1;align=center;verticalAlign=middle;resizable=0;points=[];autosize=1;strokeColor=none;fillColor=none;" parent="1" vertex="1">
          <mxGeometry x="595" y="64" width="50" height="30" as="geometry" />
        </mxCell>
        <mxCell id="BwX1vq0lGWTnCHXV-Kp8-37" style="edgeStyle=orthogonalEdgeStyle;rounded=0;orthogonalLoop=1;jettySize=auto;html=1;exitX=0.25;exitY=0;exitDx=0;exitDy=0;endArrow=oval;endFill=0;endSize=10;" parent="1" edge="1">
          <mxGeometry relative="1" as="geometry">
            <mxPoint x="673" y="159" as="sourcePoint" />
            <mxPoint x="673" y="99" as="targetPoint" />
          </mxGeometry>
        </mxCell>
        <mxCell id="BwX1vq0lGWTnCHXV-Kp8-38" value="Name" style="text;html=1;align=center;verticalAlign=middle;resizable=0;points=[];autosize=1;strokeColor=none;fillColor=none;" parent="1" vertex="1">
          <mxGeometry x="643" y="66" width="60" height="30" as="geometry" />
        </mxCell>
        <mxCell id="BwX1vq0lGWTnCHXV-Kp8-41" value="Description" style="text;html=1;align=center;verticalAlign=middle;resizable=0;points=[];autosize=1;strokeColor=none;fillColor=none;" parent="1" vertex="1">
          <mxGeometry x="800" y="154" width="80" height="30" as="geometry" />
        </mxCell>
        <mxCell id="BwX1vq0lGWTnCHXV-Kp8-42" style="edgeStyle=orthogonalEdgeStyle;rounded=0;orthogonalLoop=1;jettySize=auto;html=1;exitX=1;exitY=0.25;exitDx=0;exitDy=0;endSize=10;endArrow=oval;endFill=0;" parent="1" edge="1">
          <mxGeometry relative="1" as="geometry">
            <mxPoint x="709" y="191" as="sourcePoint" />
            <mxPoint x="799" y="191" as="targetPoint" />
          </mxGeometry>
        </mxCell>
        <mxCell id="BwX1vq0lGWTnCHXV-Kp8-43" value="Category" style="text;html=1;align=center;verticalAlign=middle;resizable=0;points=[];autosize=1;strokeColor=none;fillColor=none;" parent="1" vertex="1">
          <mxGeometry x="800" y="178" width="70" height="30" as="geometry" />
        </mxCell>
        <mxCell id="BwX1vq0lGWTnCHXV-Kp8-44" style="edgeStyle=orthogonalEdgeStyle;rounded=0;orthogonalLoop=1;jettySize=auto;html=1;exitX=0.25;exitY=1;exitDx=0;exitDy=0;endArrow=oval;endFill=0;endSize=10;" parent="1" edge="1">
          <mxGeometry relative="1" as="geometry">
            <mxPoint x="679" y="199" as="sourcePoint" />
            <mxPoint x="679" y="269" as="targetPoint" />
          </mxGeometry>
        </mxCell>
        <mxCell id="BwX1vq0lGWTnCHXV-Kp8-45" value="Photo" style="text;html=1;align=center;verticalAlign=middle;resizable=0;points=[];autosize=1;strokeColor=none;fillColor=none;" parent="1" vertex="1">
          <mxGeometry x="654" y="270" width="50" height="30" as="geometry" />
        </mxCell>
        <mxCell id="BwX1vq0lGWTnCHXV-Kp8-46" value="Supplier" style="whiteSpace=wrap;html=1;align=center;" parent="1" vertex="1">
          <mxGeometry x="603" y="520" width="100" height="40" as="geometry" />
        </mxCell>
        <mxCell id="BwX1vq0lGWTnCHXV-Kp8-47" style="edgeStyle=orthogonalEdgeStyle;rounded=0;orthogonalLoop=1;jettySize=auto;html=1;exitX=0.25;exitY=0;exitDx=0;exitDy=0;endArrow=oval;endFill=1;endSize=10;" parent="1" edge="1">
          <mxGeometry relative="1" as="geometry">
            <mxPoint x="608.5" y="520" as="sourcePoint" />
            <mxPoint x="608.5" y="460" as="targetPoint" />
          </mxGeometry>
        </mxCell>
        <mxCell id="BwX1vq0lGWTnCHXV-Kp8-48" value="Code" style="text;html=1;align=center;verticalAlign=middle;resizable=0;points=[];autosize=1;strokeColor=none;fillColor=none;" parent="1" vertex="1">
          <mxGeometry x="577" y="430" width="50" height="30" as="geometry" />
        </mxCell>
        <mxCell id="BwX1vq0lGWTnCHXV-Kp8-50" style="edgeStyle=orthogonalEdgeStyle;rounded=0;orthogonalLoop=1;jettySize=auto;html=1;exitX=0.25;exitY=0;exitDx=0;exitDy=0;endArrow=oval;endFill=0;endSize=10;" parent="1" edge="1">
          <mxGeometry relative="1" as="geometry">
            <mxPoint x="694" y="519" as="sourcePoint" />
            <mxPoint x="694" y="459" as="targetPoint" />
          </mxGeometry>
        </mxCell>
        <mxCell id="BwX1vq0lGWTnCHXV-Kp8-51" value="Name" style="text;html=1;align=center;verticalAlign=middle;resizable=0;points=[];autosize=1;strokeColor=none;fillColor=none;" parent="1" vertex="1">
          <mxGeometry x="663" y="431" width="60" height="30" as="geometry" />
        </mxCell>
        <mxCell id="BwX1vq0lGWTnCHXV-Kp8-52" style="edgeStyle=orthogonalEdgeStyle;rounded=0;orthogonalLoop=1;jettySize=auto;html=1;exitX=1;exitY=0.25;exitDx=0;exitDy=0;endSize=10;endArrow=oval;endFill=0;" parent="1" edge="1">
          <mxGeometry relative="1" as="geometry">
            <mxPoint x="704" y="528" as="sourcePoint" />
            <mxPoint x="794" y="528" as="targetPoint" />
          </mxGeometry>
        </mxCell>
        <mxCell id="BwX1vq0lGWTnCHXV-Kp8-53" value="Score" style="text;html=1;align=center;verticalAlign=middle;resizable=0;points=[];autosize=1;strokeColor=none;fillColor=none;" parent="1" vertex="1">
          <mxGeometry x="799" y="515" width="50" height="30" as="geometry" />
        </mxCell>
        <mxCell id="BwX1vq0lGWTnCHXV-Kp8-54" value="Spending ranges" style="whiteSpace=wrap;html=1;align=center;" parent="1" vertex="1">
          <mxGeometry x="602" y="780" width="100" height="40" as="geometry" />
        </mxCell>
        <mxCell id="BwX1vq0lGWTnCHXV-Kp8-57" value="Take" style="shape=rhombus;perimeter=rhombusPerimeter;whiteSpace=wrap;html=1;align=center;" parent="1" vertex="1">
          <mxGeometry x="603.5" y="650" width="97" height="60" as="geometry" />
        </mxCell>
        <mxCell id="BwX1vq0lGWTnCHXV-Kp8-58" value="" style="endArrow=none;html=1;rounded=0;exitX=0.5;exitY=0;exitDx=0;exitDy=0;" parent="1" source="BwX1vq0lGWTnCHXV-Kp8-57" edge="1">
          <mxGeometry relative="1" as="geometry">
            <mxPoint x="650" y="650" as="sourcePoint" />
            <mxPoint x="651.5" y="560" as="targetPoint" />
            <Array as="points" />
          </mxGeometry>
        </mxCell>
        <mxCell id="BwX1vq0lGWTnCHXV-Kp8-60" value="(1,N)" style="resizable=0;html=1;whiteSpace=wrap;align=right;verticalAlign=bottom;" parent="BwX1vq0lGWTnCHXV-Kp8-58" connectable="0" vertex="1">
          <mxGeometry x="1" relative="1" as="geometry">
            <mxPoint x="36" y="58" as="offset" />
          </mxGeometry>
        </mxCell>
        <mxCell id="BwX1vq0lGWTnCHXV-Kp8-62" value="" style="endArrow=none;html=1;rounded=0;exitX=0.5;exitY=0;exitDx=0;exitDy=0;" parent="1" edge="1">
          <mxGeometry relative="1" as="geometry">
            <mxPoint x="653" y="779" as="sourcePoint" />
            <mxPoint x="653" y="710" as="targetPoint" />
            <Array as="points" />
          </mxGeometry>
        </mxCell>
        <mxCell id="BwX1vq0lGWTnCHXV-Kp8-63" value="(1,1)" style="resizable=0;html=1;whiteSpace=wrap;align=left;verticalAlign=bottom;" parent="BwX1vq0lGWTnCHXV-Kp8-62" connectable="0" vertex="1">
          <mxGeometry x="-1" relative="1" as="geometry">
            <mxPoint x="8" y="-29" as="offset" />
          </mxGeometry>
        </mxCell>
        <mxCell id="BwX1vq0lGWTnCHXV-Kp8-65" style="edgeStyle=orthogonalEdgeStyle;rounded=0;orthogonalLoop=1;jettySize=auto;html=1;exitX=0.25;exitY=0;exitDx=0;exitDy=0;endArrow=oval;endFill=0;endSize=10;" parent="1" edge="1">
          <mxGeometry relative="1" as="geometry">
            <mxPoint x="616" y="779" as="sourcePoint" />
            <mxPoint x="616" y="719" as="targetPoint" />
          </mxGeometry>
        </mxCell>
        <mxCell id="BwX1vq0lGWTnCHXV-Kp8-66" value="Price" style="text;html=1;align=center;verticalAlign=middle;resizable=0;points=[];autosize=1;strokeColor=none;fillColor=none;" parent="1" vertex="1">
          <mxGeometry x="561" y="703" width="50" height="30" as="geometry" />
        </mxCell>
        <mxCell id="BwX1vq0lGWTnCHXV-Kp8-67" style="edgeStyle=orthogonalEdgeStyle;rounded=0;orthogonalLoop=1;jettySize=auto;html=1;exitX=1;exitY=0.25;exitDx=0;exitDy=0;endSize=10;endArrow=oval;endFill=1;" parent="1" edge="1">
          <mxGeometry relative="1" as="geometry">
            <mxPoint x="592" y="761" as="sourcePoint" />
            <mxPoint x="682" y="761" as="targetPoint" />
          </mxGeometry>
        </mxCell>
        <mxCell id="BwX1vq0lGWTnCHXV-Kp8-68" style="edgeStyle=orthogonalEdgeStyle;rounded=0;orthogonalLoop=1;jettySize=auto;html=1;exitX=0.25;exitY=1;exitDx=0;exitDy=0;endArrow=oval;endFill=0;endSize=10;" parent="1" edge="1">
          <mxGeometry relative="1" as="geometry">
            <mxPoint x="684" y="820" as="sourcePoint" />
            <mxPoint x="684" y="890" as="targetPoint" />
          </mxGeometry>
        </mxCell>
        <mxCell id="BwX1vq0lGWTnCHXV-Kp8-69" value="Minimum&lt;br&gt;Number" style="text;html=1;align=center;verticalAlign=middle;resizable=0;points=[];autosize=1;strokeColor=none;fillColor=none;" parent="1" vertex="1">
          <mxGeometry x="645" y="893" width="70" height="40" as="geometry" />
        </mxCell>
        <mxCell id="BwX1vq0lGWTnCHXV-Kp8-70" style="edgeStyle=orthogonalEdgeStyle;rounded=0;orthogonalLoop=1;jettySize=auto;html=1;exitX=0.25;exitY=1;exitDx=0;exitDy=0;endArrow=oval;endFill=0;endSize=10;" parent="1" edge="1">
          <mxGeometry relative="1" as="geometry">
            <mxPoint x="622" y="821" as="sourcePoint" />
            <mxPoint x="622" y="891" as="targetPoint" />
          </mxGeometry>
        </mxCell>
        <mxCell id="BwX1vq0lGWTnCHXV-Kp8-71" value="Maximum&lt;br&gt;Number" style="text;html=1;align=center;verticalAlign=middle;resizable=0;points=[];autosize=1;strokeColor=none;fillColor=none;" parent="1" vertex="1">
          <mxGeometry x="580" y="891" width="80" height="40" as="geometry" />
        </mxCell>
        <mxCell id="BwX1vq0lGWTnCHXV-Kp8-72" value="(0,1)" style="text;html=1;align=center;verticalAlign=middle;resizable=0;points=[];autosize=1;strokeColor=none;fillColor=none;" parent="1" vertex="1">
          <mxGeometry x="580" y="848" width="50" height="30" as="geometry" />
        </mxCell>
        <mxCell id="BwX1vq0lGWTnCHXV-Kp8-73" value="" style="endArrow=none;html=1;rounded=0;" parent="1" edge="1">
          <mxGeometry relative="1" as="geometry">
            <mxPoint x="652" y="320" as="sourcePoint" />
            <mxPoint x="651.5" y="200" as="targetPoint" />
            <Array as="points" />
          </mxGeometry>
        </mxCell>
        <mxCell id="BwX1vq0lGWTnCHXV-Kp8-74" value="(1,N)" style="resizable=0;html=1;whiteSpace=wrap;align=right;verticalAlign=bottom;" parent="BwX1vq0lGWTnCHXV-Kp8-73" connectable="0" vertex="1">
          <mxGeometry x="1" relative="1" as="geometry">
            <mxPoint x="-6" y="90" as="offset" />
          </mxGeometry>
        </mxCell>
        <mxCell id="nYKgVuAD7oTnmm85EfK3-2" style="edgeStyle=orthogonalEdgeStyle;rounded=0;orthogonalLoop=1;jettySize=auto;html=1;exitX=1;exitY=0;exitDx=0;exitDy=0;endSize=10;endArrow=oval;endFill=0;" parent="1" source="BwX1vq0lGWTnCHXV-Kp8-75" edge="1">
          <mxGeometry relative="1" as="geometry">
            <mxPoint x="768" y="335" as="targetPoint" />
          </mxGeometry>
        </mxCell>
        <mxCell id="BwX1vq0lGWTnCHXV-Kp8-75" value="Sold by" style="shape=rhombus;perimeter=rhombusPerimeter;whiteSpace=wrap;html=1;align=center;" parent="1" vertex="1">
          <mxGeometry x="604.5" y="320" width="97" height="60" as="geometry" />
        </mxCell>
        <mxCell id="BwX1vq0lGWTnCHXV-Kp8-76" value="" style="endArrow=none;html=1;rounded=0;exitX=0.5;exitY=0;exitDx=0;exitDy=0;" parent="1" source="BwX1vq0lGWTnCHXV-Kp8-46" edge="1">
          <mxGeometry relative="1" as="geometry">
            <mxPoint x="653" y="500" as="sourcePoint" />
            <mxPoint x="652.5" y="380" as="targetPoint" />
            <Array as="points" />
          </mxGeometry>
        </mxCell>
        <mxCell id="BwX1vq0lGWTnCHXV-Kp8-77" value="(1,N)" style="resizable=0;html=1;whiteSpace=wrap;align=right;verticalAlign=bottom;" parent="BwX1vq0lGWTnCHXV-Kp8-76" connectable="0" vertex="1">
          <mxGeometry x="1" relative="1" as="geometry">
            <mxPoint x="-7" y="50" as="offset" />
          </mxGeometry>
        </mxCell>
        <mxCell id="BwX1vq0lGWTnCHXV-Kp8-78" value="" style="endArrow=none;html=1;rounded=0;" parent="1" edge="1">
          <mxGeometry relative="1" as="geometry">
            <mxPoint x="230" y="182" as="sourcePoint" />
            <mxPoint x="390" y="182" as="targetPoint" />
          </mxGeometry>
        </mxCell>
        <mxCell id="BwX1vq0lGWTnCHXV-Kp8-79" value="(0,N)" style="resizable=0;html=1;whiteSpace=wrap;align=right;verticalAlign=bottom;" parent="BwX1vq0lGWTnCHXV-Kp8-78" connectable="0" vertex="1">
          <mxGeometry x="1" relative="1" as="geometry">
            <mxPoint x="-80" y="-2" as="offset" />
          </mxGeometry>
        </mxCell>
        <mxCell id="BwX1vq0lGWTnCHXV-Kp8-81" value="" style="endArrow=none;html=1;rounded=0;" parent="1" edge="1">
          <mxGeometry relative="1" as="geometry">
            <mxPoint x="448" y="181.5" as="sourcePoint" />
            <mxPoint x="608" y="181.5" as="targetPoint" />
          </mxGeometry>
        </mxCell>
        <mxCell id="BwX1vq0lGWTnCHXV-Kp8-82" value="(0,N)" style="resizable=0;html=1;whiteSpace=wrap;align=right;verticalAlign=bottom;" parent="BwX1vq0lGWTnCHXV-Kp8-81" connectable="0" vertex="1">
          <mxGeometry x="1" relative="1" as="geometry">
            <mxPoint x="-72" y="-1" as="offset" />
          </mxGeometry>
        </mxCell>
        <mxCell id="nYKgVuAD7oTnmm85EfK3-6" style="edgeStyle=orthogonalEdgeStyle;rounded=0;orthogonalLoop=1;jettySize=auto;html=1;exitX=1;exitY=0;exitDx=0;exitDy=0;endSize=10;endArrow=oval;endFill=0;" parent="1" source="BwX1vq0lGWTnCHXV-Kp8-83" edge="1">
          <mxGeometry relative="1" as="geometry">
            <mxPoint x="442.5" y="91" as="targetPoint" />
          </mxGeometry>
        </mxCell>
        <mxCell id="BwX1vq0lGWTnCHXV-Kp8-83" value="Visualize" style="shape=rhombus;perimeter=rhombusPerimeter;whiteSpace=wrap;html=1;align=center;" parent="1" vertex="1">
          <mxGeometry x="370" y="152" width="97" height="60" as="geometry" />
        </mxCell>
        <mxCell id="BwX1vq0lGWTnCHXV-Kp8-86" value="" style="endArrow=none;html=1;rounded=0;" parent="1" edge="1">
          <mxGeometry relative="1" as="geometry">
            <mxPoint x="180.5" y="320" as="sourcePoint" />
            <mxPoint x="180" y="200" as="targetPoint" />
            <Array as="points" />
          </mxGeometry>
        </mxCell>
        <mxCell id="BwX1vq0lGWTnCHXV-Kp8-87" value="(0,N)" style="resizable=0;html=1;whiteSpace=wrap;align=right;verticalAlign=bottom;" parent="BwX1vq0lGWTnCHXV-Kp8-86" connectable="0" vertex="1">
          <mxGeometry x="1" relative="1" as="geometry">
            <mxPoint x="37" y="86" as="offset" />
          </mxGeometry>
        </mxCell>
        <mxCell id="BwX1vq0lGWTnCHXV-Kp8-88" value="Create" style="shape=rhombus;perimeter=rhombusPerimeter;whiteSpace=wrap;html=1;align=center;" parent="1" vertex="1">
          <mxGeometry x="131.5" y="320" width="97" height="60" as="geometry" />
        </mxCell>
        <mxCell id="BwX1vq0lGWTnCHXV-Kp8-89" value="" style="endArrow=none;html=1;rounded=0;" parent="1" edge="1">
          <mxGeometry relative="1" as="geometry">
            <mxPoint x="180.5" y="500" as="sourcePoint" />
            <mxPoint x="180" y="380" as="targetPoint" />
            <Array as="points" />
          </mxGeometry>
        </mxCell>
        <mxCell id="BwX1vq0lGWTnCHXV-Kp8-90" value="(1,1)" style="resizable=0;html=1;whiteSpace=wrap;align=right;verticalAlign=bottom;" parent="BwX1vq0lGWTnCHXV-Kp8-89" connectable="0" vertex="1">
          <mxGeometry x="1" relative="1" as="geometry">
            <mxPoint x="-6" y="42" as="offset" />
          </mxGeometry>
        </mxCell>
        <mxCell id="BwX1vq0lGWTnCHXV-Kp8-91" value="Orders" style="whiteSpace=wrap;html=1;align=center;" parent="1" vertex="1">
          <mxGeometry x="128.5" y="500" width="100" height="40" as="geometry" />
        </mxCell>
        <mxCell id="BwX1vq0lGWTnCHXV-Kp8-92" style="edgeStyle=orthogonalEdgeStyle;rounded=0;orthogonalLoop=1;jettySize=auto;html=1;exitX=0.25;exitY=0;exitDx=0;exitDy=0;endArrow=oval;endFill=1;endSize=10;" parent="1" edge="1">
          <mxGeometry relative="1" as="geometry">
            <mxPoint x="141" y="500" as="sourcePoint" />
            <mxPoint x="141" y="440" as="targetPoint" />
          </mxGeometry>
        </mxCell>
        <mxCell id="BwX1vq0lGWTnCHXV-Kp8-93" value="Code" style="text;html=1;align=center;verticalAlign=middle;resizable=0;points=[];autosize=1;strokeColor=none;fillColor=none;" parent="1" vertex="1">
          <mxGeometry x="81" y="424" width="50" height="30" as="geometry" />
        </mxCell>
        <mxCell id="BwX1vq0lGWTnCHXV-Kp8-94" style="edgeStyle=orthogonalEdgeStyle;rounded=0;orthogonalLoop=1;jettySize=auto;html=1;exitX=0;exitY=0.25;exitDx=0;exitDy=0;endArrow=oval;endFill=0;endSize=10;" parent="1" edge="1">
          <mxGeometry relative="1" as="geometry">
            <mxPoint x="129" y="505" as="sourcePoint" />
            <mxPoint x="49" y="505" as="targetPoint" />
          </mxGeometry>
        </mxCell>
        <mxCell id="BwX1vq0lGWTnCHXV-Kp8-95" value="Supplier&lt;br&gt;Name" style="text;html=1;align=center;verticalAlign=middle;resizable=0;points=[];autosize=1;strokeColor=none;fillColor=none;" parent="1" vertex="1">
          <mxGeometry x="-20" y="476" width="70" height="40" as="geometry" />
        </mxCell>
        <mxCell id="BwX1vq0lGWTnCHXV-Kp8-98" style="edgeStyle=orthogonalEdgeStyle;rounded=0;orthogonalLoop=1;jettySize=auto;html=1;exitX=0;exitY=0.25;exitDx=0;exitDy=0;endArrow=oval;endFill=0;endSize=10;" parent="1" edge="1">
          <mxGeometry relative="1" as="geometry">
            <mxPoint x="128" y="539" as="sourcePoint" />
            <mxPoint x="48" y="539" as="targetPoint" />
          </mxGeometry>
        </mxCell>
        <mxCell id="BwX1vq0lGWTnCHXV-Kp8-99" value="Spesa&lt;br&gt;totale" style="text;html=1;align=center;verticalAlign=middle;resizable=0;points=[];autosize=1;strokeColor=none;fillColor=none;" parent="1" vertex="1">
          <mxGeometry x="-12" y="523" width="60" height="40" as="geometry" />
        </mxCell>
        <mxCell id="BwX1vq0lGWTnCHXV-Kp8-100" style="edgeStyle=orthogonalEdgeStyle;rounded=0;orthogonalLoop=1;jettySize=auto;html=1;exitX=0.25;exitY=1;exitDx=0;exitDy=0;endArrow=oval;endFill=0;endSize=10;" parent="1" edge="1">
          <mxGeometry relative="1" as="geometry">
            <mxPoint x="149" y="540" as="sourcePoint" />
            <mxPoint x="149" y="610" as="targetPoint" />
          </mxGeometry>
        </mxCell>
        <mxCell id="BwX1vq0lGWTnCHXV-Kp8-101" value="Date" style="text;html=1;align=center;verticalAlign=middle;resizable=0;points=[];autosize=1;strokeColor=none;fillColor=none;" parent="1" vertex="1">
          <mxGeometry x="109" y="619" width="50" height="30" as="geometry" />
        </mxCell>
        <mxCell id="BwX1vq0lGWTnCHXV-Kp8-102" style="edgeStyle=orthogonalEdgeStyle;rounded=0;orthogonalLoop=1;jettySize=auto;html=1;exitX=0.25;exitY=1;exitDx=0;exitDy=0;endArrow=oval;endFill=0;endSize=10;" parent="1" edge="1">
          <mxGeometry relative="1" as="geometry">
            <mxPoint x="200" y="540" as="sourcePoint" />
            <mxPoint x="200" y="610" as="targetPoint" />
          </mxGeometry>
        </mxCell>
        <mxCell id="BwX1vq0lGWTnCHXV-Kp8-103" value="Address" style="text;html=1;align=center;verticalAlign=middle;resizable=0;points=[];autosize=1;strokeColor=none;fillColor=none;" parent="1" vertex="1">
          <mxGeometry x="175" y="620" width="70" height="30" as="geometry" />
        </mxCell>
        <mxCell id="nYKgVuAD7oTnmm85EfK3-3" value="Price" style="text;html=1;align=center;verticalAlign=middle;resizable=0;points=[];autosize=1;strokeColor=none;fillColor=none;" parent="1" vertex="1">
          <mxGeometry x="772" y="320" width="50" height="30" as="geometry" />
        </mxCell>
        <mxCell id="nYKgVuAD7oTnmm85EfK3-7" value="Date" style="text;html=1;align=center;verticalAlign=middle;resizable=0;points=[];autosize=1;strokeColor=none;fillColor=none;" parent="1" vertex="1">
          <mxGeometry x="415" y="60" width="50" height="30" as="geometry" />
        </mxCell>
        <mxCell id="nYKgVuAD7oTnmm85EfK3-10" value="Composed&amp;nbsp;" style="shape=rhombus;perimeter=rhombusPerimeter;whiteSpace=wrap;html=1;align=center;" parent="1" vertex="1">
          <mxGeometry x="358.5" y="340" width="120" height="60" as="geometry" />
        </mxCell>
        <mxCell id="nYKgVuAD7oTnmm85EfK3-14" value="" style="endArrow=none;html=1;rounded=0;" parent="1" target="nYKgVuAD7oTnmm85EfK3-10" edge="1">
          <mxGeometry relative="1" as="geometry">
            <mxPoint x="228.5" y="520" as="sourcePoint" />
            <mxPoint x="388.5" y="520" as="targetPoint" />
          </mxGeometry>
        </mxCell>
        <mxCell id="nYKgVuAD7oTnmm85EfK3-15" value="" style="endArrow=none;html=1;rounded=0;exitX=0.658;exitY=0.137;exitDx=0;exitDy=0;exitPerimeter=0;" parent="1" source="nYKgVuAD7oTnmm85EfK3-10" target="BwX1vq0lGWTnCHXV-Kp8-33" edge="1">
          <mxGeometry relative="1" as="geometry">
            <mxPoint x="430" y="349" as="sourcePoint" />
            <mxPoint x="590" y="349" as="targetPoint" />
          </mxGeometry>
        </mxCell>
        <mxCell id="nYKgVuAD7oTnmm85EfK3-17" value="(1,N)" style="text;html=1;align=center;verticalAlign=middle;resizable=0;points=[];autosize=1;strokeColor=none;fillColor=none;" parent="1" vertex="1">
          <mxGeometry x="294" y="456" width="50" height="30" as="geometry" />
        </mxCell>
        <mxCell id="nYKgVuAD7oTnmm85EfK3-18" value="(0,N)" style="text;html=1;align=center;verticalAlign=middle;resizable=0;points=[];autosize=1;strokeColor=none;fillColor=none;" parent="1" vertex="1">
          <mxGeometry x="495" y="288" width="50" height="30" as="geometry" />
        </mxCell>
        <mxCell id="iOq-AdqKOAUPyNB92W1p-2" style="edgeStyle=orthogonalEdgeStyle;rounded=0;orthogonalLoop=1;jettySize=auto;html=1;exitX=0.25;exitY=0;exitDx=0;exitDy=0;endArrow=oval;endFill=0;endSize=10;" parent="1" edge="1">
          <mxGeometry relative="1" as="geometry">
            <mxPoint x="400" y="349" as="sourcePoint" />
            <mxPoint x="400" y="289" as="targetPoint" />
          </mxGeometry>
        </mxCell>
        <mxCell id="iOq-AdqKOAUPyNB92W1p-3" value="Quantity" style="text;html=1;align=center;verticalAlign=middle;resizable=0;points=[];autosize=1;strokeColor=none;fillColor=none;" parent="1" vertex="1">
          <mxGeometry x="365" y="258" width="70" height="30" as="geometry" />
        </mxCell>
        <mxCell id="iOq-AdqKOAUPyNB92W1p-4" style="edgeStyle=orthogonalEdgeStyle;rounded=0;orthogonalLoop=1;jettySize=auto;html=1;exitX=0.25;exitY=0;exitDx=0;exitDy=0;endArrow=oval;endFill=0;endSize=10;" parent="1" edge="1">
          <mxGeometry relative="1" as="geometry">
            <mxPoint x="211" y="501" as="sourcePoint" />
            <mxPoint x="211" y="441" as="targetPoint" />
          </mxGeometry>
        </mxCell>
        <mxCell id="iOq-AdqKOAUPyNB92W1p-5" value="MailUser" style="text;html=1;align=center;verticalAlign=middle;resizable=0;points=[];autosize=1;strokeColor=none;fillColor=none;" parent="1" vertex="1">
          <mxGeometry x="195" y="408" width="70" height="30" as="geometry" />
        </mxCell>
        <mxCell id="48mpxIvLGwaMqBzLLn5L-1" style="edgeStyle=orthogonalEdgeStyle;rounded=0;orthogonalLoop=1;jettySize=auto;html=1;exitX=0.25;exitY=1;exitDx=0;exitDy=0;endArrow=oval;endFill=0;endSize=10;" edge="1" parent="1">
          <mxGeometry relative="1" as="geometry">
            <mxPoint x="698" y="560" as="sourcePoint" />
            <mxPoint x="698" y="630" as="targetPoint" />
          </mxGeometry>
        </mxCell>
        <mxCell id="48mpxIvLGwaMqBzLLn5L-2" value="FreeShipping" style="text;html=1;align=center;verticalAlign=middle;resizable=0;points=[];autosize=1;strokeColor=none;fillColor=none;" vertex="1" parent="1">
          <mxGeometry x="700.5" y="598" width="90" height="30" as="geometry" />
        </mxCell>
      </root>
    </mxGraphModel>
  </diagram>
</mxfile>
